<svg width="186" height="40" viewBox="0 0 186 40" fill="none" xmlns="http://www.w3.org/2000/svg">
<g id="Logo">
<path id="Vector" d="M169.628 11.0309V6.99326C169.628 5.21357 167.973 3.771 166.19 3.771C164.41 3.771 162.756 5.21357 162.756 6.99326V11.0309V17.0913H169.628V11.0309Z" fill="#BE1D3D"/>
<path id="Vector_2" d="M168.816 17.0913H172.854C174.634 17.0913 176.076 15.437 176.076 13.6573C176.076 11.8776 174.634 10.2234 172.854 10.2234H168.816H162.756V17.0952H168.816V17.0913Z" fill="#E30045"/>
<path id="Vector_3" d="M0 3.75928V29.0435C0 32.5872 0.717366 35.1627 2.14818 36.7738C3.57899 38.3849 6.20933 39.1885 10.0392 39.1885H12.991V32.4774H10.6821C9.14151 32.4774 8.12231 32.1756 7.62054 31.5641C7.11878 30.9565 6.8679 29.898 6.8679 28.3967V16.6405H13.9514V10.7369H6.76205V3.75928H0Z" fill="white"/>
<path id="Vector_4" d="M31.9638 9.93336C30.5683 9.93336 29.208 10.2901 27.8831 11.0074C26.5581 11.7248 25.6094 12.548 25.0371 13.4771H24.9313V0H17.9536V39.1886H24.9313V21.3132C24.9313 19.8471 25.3507 18.6554 26.1935 17.7421C27.0324 16.8287 28.2594 16.374 29.8705 16.374C31.5522 16.374 32.8145 16.8836 33.6573 17.9028C34.4961 18.922 34.9195 20.2195 34.9195 21.7954V39.1886H41.8972V20.2391C41.8972 17.0913 41.0034 14.5864 39.2119 12.7244C37.4205 10.8624 35.0057 9.93336 31.9638 9.93336Z" fill="white"/>
<path id="Vector_5" d="M55.8289 11.1682C54.7705 11.8111 53.9747 12.6735 53.4376 13.7437H53.3318V10.737H46.7305V39.1886H53.7081V23.5673C53.7081 19.2396 55.3389 17.0718 58.5925 17.0718C59.2706 17.0718 60.0076 17.2129 60.7916 17.503L61.8657 10.7409C61.0425 10.3842 60.184 10.2039 59.2902 10.2039C58.0358 10.2 56.8833 10.5214 55.8289 11.1682Z" fill="white"/>
<path id="Vector_6" d="M72.317 10.7371H65.3394V39.1887H72.317V10.7371Z" fill="white"/>
<path id="Vector_7" d="M72.317 0H65.3394V6.60133H72.317V0Z" fill="white"/>
<path id="Vector_8" d="M89.9648 29.0436H89.859L82.7716 10.7371H75.5234L86.9033 39.1887H92.8108L104.191 10.7371H97.0523L89.9648 29.0436Z" fill="white"/>
<path id="Vector_9" d="M111.25 21.8502C111.396 20.2038 112.011 18.8279 113.101 17.7185C114.194 16.6092 115.598 16.0525 117.315 16.0525C119.177 16.0525 120.643 16.5621 121.717 17.5813C122.791 18.6005 123.414 20.0235 123.595 21.8502H111.25ZM117.315 9.93335C113.52 9.93335 110.38 11.3014 107.895 14.0415C105.41 16.7777 104.163 20.4194 104.163 24.9667C104.163 29.5139 105.414 33.1517 107.918 35.8918C110.423 38.628 113.661 40 117.636 40C122.575 40 126.492 37.891 129.392 33.6652L124.508 29.3728C123.575 30.733 122.583 31.815 121.529 32.6186C120.474 33.4261 119.142 33.8259 117.53 33.8259C115.633 33.8259 114.14 33.2458 113.05 32.0815C111.956 30.9212 111.36 29.2473 111.25 27.0639H130.361V24.9706C130.361 20.4273 129.134 16.7856 126.684 14.0455C124.23 11.3014 121.109 9.93335 117.315 9.93335Z" fill="white"/>
<path id="Vector_10" d="M148.181 9.93335C146.676 9.93335 145.245 10.2744 143.885 10.9526C142.525 11.6307 141.451 12.4735 140.663 13.4731H140.553V10.737H133.842V39.1885H140.823V21.7954C140.823 20.149 141.306 18.8357 142.27 17.8518C143.238 16.8679 144.579 16.374 146.296 16.374C148.122 16.374 149.408 16.8679 150.161 17.8518C150.914 18.8357 151.29 20.3136 151.29 22.2814V39.1925H158.268V20.5606C158.268 17.2324 157.374 14.6295 155.582 12.7519C153.799 10.8702 151.329 9.93335 148.181 9.93335Z" fill="white"/>
<path id="Vector_11" d="M169.628 17.0913H168.816H162.756V29.0435C162.756 32.5872 163.473 35.1627 164.904 36.7738C166.335 38.3849 168.965 39.1885 172.795 39.1885H175.747V32.4774H173.438C171.897 32.4774 170.878 32.1756 170.376 31.5641C169.875 30.9565 169.624 29.8981 169.624 28.3967V17.0913H169.628Z" fill="white"/>
<path id="Vector_12" d="M178.35 13.673C178.35 11.709 179.809 10.2351 181.706 10.2351C183.641 10.2351 185.1 11.713 185.1 13.673C185.1 15.5977 183.641 17.0716 181.706 17.0716C179.809 17.0716 178.35 15.5977 178.35 13.673ZM184.45 13.673C184.45 12.101 183.262 10.8741 181.706 10.8741C180.173 10.8741 179 12.0971 179 13.673C179 15.2253 180.169 16.4523 181.706 16.4523C183.262 16.4523 184.45 15.2292 184.45 13.673ZM180.498 11.6346H181.899C182.782 11.6346 183.3 12.101 183.3 12.9164C183.3 13.5005 182.937 13.9474 182.437 14.1395L183.3 15.6918H182.437L181.632 14.2139H181.307V15.6918H180.502V11.6346H180.498ZM181.822 13.4613C182.224 13.4613 182.472 13.2849 182.472 12.9164C182.472 12.5087 182.224 12.3519 181.822 12.3519H181.303V13.4574H181.822V13.4613Z" fill="white"/>
</g>
</svg>
